<svg viewBox="0 0 128 128" xmlns="http://www.w3.org/2000/svg" xmlns:xlink="http://www.w3.org/1999/xlink"><linearGradient id="a"><stop offset="0" stop-color="#18a303"/><stop offset="1" stop-color="#43c330"/></linearGradient><linearGradient id="b" gradientUnits="userSpaceOnUse" x1="546" x2="458" xlink:href="#a" y1="121.99995" y2="5.99995"/><linearGradient id="c" gradientUnits="userSpaceOnUse" x1="508.06174" x2="508.06174" y1="109.9985" y2="83.998497"><stop offset="0" stop-color="#727272"/><stop offset="1" stop-color="#9a9a9a"/></linearGradient><linearGradient id="d" gradientTransform="matrix(.948718 0 0 1.3 -288.38576 1491.7273)" gradientUnits="userSpaceOnUse" x1="829.36053" x2="829.36053" y1="-1064.7994" y2="-1082.3413"><stop offset="0" stop-color="#e4e4e4"/><stop offset="1" stop-color="#f9f9f9"/></linearGradient><linearGradient id="e" gradientTransform="matrix(.714286 0 0 -1.55555 125.07024 -1571.1037)" gradientUnits="userSpaceOnUse" x1="525.63947" x2="525.63947" y1="-1078.6444" y2="-1068.7872"><stop offset="0" stop-color="#63bbee"/><stop offset="1" stop-color="#aadcf7"/></linearGradient><linearGradient id="f" gradientUnits="userSpaceOnUse" x1="512.65552" x2="512.65552" y1="95.0298" y2="85.998596"><stop offset="0" stop-color="#a33e03"/><stop offset="1" stop-color="#c15414"/></linearGradient><linearGradient id="g" gradientTransform="matrix(.714286 0 0 -2.11111 133.07024 -2170.0637)" gradientUnits="userSpaceOnUse" x1="525.63947" x2="525.63947" y1="-1078.6444" y2="-1068.7872"><stop offset="0" stop-color="#f09e6f"/><stop offset="1" stop-color="#f9cfb5"/></linearGradient><linearGradient id="h" gradientTransform="matrix(.714286 0 0 -.888884 141.07024 -852.34365)" gradientUnits="userSpaceOnUse" x1="525.63947" x2="525.63947" y1="-1078.6444" y2="-1068.7872"><stop offset="0" stop-color="#f5ce53"/><stop offset="1" stop-color="#fde9a9"/></linearGradient><linearGradient id="i" gradientTransform="matrix(.714286 0 0 -1.33333 149.07024 -1331.5137)" gradientUnits="userSpaceOnUse" x1="525.63947" x2="525.63947" y1="-1078.6444" y2="-1068.7872"><stop offset="0" stop-color="#8ee780"/><stop offset="1" stop-color="#ccf4c6"/></linearGradient><linearGradient id="j" gradientUnits="userSpaceOnUse" x1="108.00134" x2="20.00134" y1="122" y2="6"><stop offset="0" stop-color="#e6e6e6"/><stop offset="1" stop-color="#fff"/></linearGradient><linearGradient id="k" gradientTransform="matrix(7.99974 0 0 7.9977797 -873.96742 -7808.7674)" gradientUnits="userSpaceOnUse" x1="122.75008" x2="111.74973" xlink:href="#a" y1="991.62115" y2="977.11713"/><path d="m17.253295 0c-.25037 0-.50072.011156-.75.035156-3.66708.6998-4.56576 2.2662469-4.5 5.9980468v115.9687472c.0004 4.1875 1.81149 5.99765 6 5.99805h91.998055c4.1885-.0004 5.99764-1.81055 5.99804-5.99805v-71.818356c.048-2.1119-.78004-4.230247-2.25-5.748047l-42.160145-42.1503908c-1.51819-1.4691999-3.63759-2.2988999-5.75-2.25h-47.83595c-.24919-.024-.49962-.0351562-.75-.0351562zm70.00978.013672c-.20997 0-.41948.016828-.62695.048828-2.66247.8528-3.55843 4.904547-1.50586 6.810547l24.095695 24.220703c2.22593 2.1217 6.6581.306209 6.77538-2.775391v-24.220703c-.00024-2.1136998-1.91298-4.034856-4.01561-4.035156h-24.093755c-.20758-.032-.41894-.048828-.6289-.048828z" fill="url(#k)"/><path d="m18.001355 6v116h92.000015v-72l-43.999995-44z" fill="url(#j)"/><g transform="translate(-437.99866 2)"><path d="m469 53.998v2 8 2 8 2 8 2 8 2 8 2h60v-2-50h-58z" fill="url(#b)"/><g fill="#92e285"><path d="m470.99924 55.99855h17v8h-17z"/><path d="m489.99748 55.99855h17.99994v8h-17.99994z"/><path d="m509.99924 55.99855h17v8h-17z"/></g><g fill="#ccf4c6"><path d="m470.99924 65.99855h17v8h-17z"/><path d="m509.99924 65.99855h17v8h-17z"/><path d="m489.99748 75.99855h17.99994v8h-17.99994z"/><path d="m509.99924 75.99855h17v8h-17z"/><path d="m470.99924 75.99855h17v8h-17z"/><path d="m489.99748 85.99855h17.99994v8h-17.99994z"/><path d="m470.99924 85.99855h17v8h-17z"/><path d="m489.99748 95.99855h17.99994v8h-17.99994z"/><path d="m470.99924 95.99855h17v8h-17z"/></g><path d="m493.99924 81.99855h39v28h-39z" fill="url(#c)"/><path d="m495.99924 83.99855h35v24h-35z" fill="url(#d)"/><path d="m497.99924 90.99855h7v15.9999h-7z" fill="#18a303"/><path d="m498.99924 105.99855h5v-14h-5z" fill="url(#e)"/><path d="m505.99924 85.99855h7v20.9999h-7z" fill="url(#f)"/><path d="m506.99924 105.99855h5v-19h-5z" fill="url(#g)"/><path d="m513.99924 96.99855h7v9.9999h-7z" fill="#c99c00"/><path d="m514.99924 105.99855h5v-8h-5z" fill="url(#h)"/><path d="m521.99924 92.99855h7v14h-7z" fill="#43c330"/><path d="m522.99924 105.99855h5v-12h-5z" fill="url(#i)"/><path d="m489.99748 65.99855h17.99994v8h-17.99994z" fill="#ccf4c6"/></g></svg>
