<?xml version="1.0" encoding="UTF-8" standalone="no"?>
<svg width="686px" height="686px" viewBox="0 0 686 686" version="1.1" xmlns="http://www.w3.org/2000/svg" xmlns:xlink="http://www.w3.org/1999/xlink">
    <!-- Generator: Sketch 39.1 (31720) - http://www.bohemiancoding.com/sketch -->
    <title>helm</title>
    <desc>Created with Sketch.</desc>
    <defs></defs>
    <g id="Page-1" stroke="none" stroke-width="1" fill="none" fill-rule="evenodd">
        <g id="helm">
            <g id="Group">
                <path d="M347,685.2 L338,685.2 C323.9,681.5 319.9,670.9 319.5,657.9 C319.4,655.2 319.2,652.5 319.8,649.9 C322.3,638.4 324.7,626.8 327.9,615.5 C330.2,607.3 329.3,603 322.9,597.4 C321.1,595.8 319.6,592.8 319.4,590.4 C318.9,584.6 319.1,578.7 319.3,572.9 C319.4,570.1 318.3,569.3 315.6,569 C283.7,565.3 253.9,555.3 226.4,538.8 C216.9,533.1 207.9,526.5 198,519.9 C193.5,524.6 189.2,529.6 184.2,534.1 C182.3,535.8 179,537 176.4,536.9 C168,536.4 164.3,538.7 160.1,546.2 C154.3,556.5 148.2,566.6 141.4,576.2 C136.7,582.9 130.3,588.1 122.2,590.9 C113.5,593.9 106.5,590.8 100.5,584.8 C94.4,578.7 91.1,571.4 94.8,563.1 C97.4,557.5 101.1,552.1 105.4,547.6 C115.3,537.4 127.5,530.6 140.3,524.7 C146.8,521.7 149.7,516.7 148.4,509.9 C147.7,506.1 148.7,503.5 151.4,501 C156.3,496.5 161.1,491.9 166.1,487.2 C137.4,451.4 120.9,411.5 115.9,366.3 C108.8,366.3 102,366.6 95.3,366.1 C92.7,365.9 89.6,364.4 87.9,362.5 C82.5,356.4 77.9,354.9 70.2,357.7 C56.9,362.7 43.1,366.1 28.8,366 C15.4,366 4,362.2 0.2,347.3 L0.2,338.3 C6.7,323.3 15.1,317.9 32.4,320 C45.2,321.6 57.8,324.9 70.3,328.3 C77.9,330.3 82.8,329.8 87.5,323.5 C89.7,320.5 92.3,319.3 95.9,319.4 C102.5,319.6 109.1,319.5 116,319.5 C118.5,297.1 123.8,276.1 132.1,255.8 C140.5,235.4 151.9,216.7 165.9,199 C160.8,194 155.7,189.4 151.2,184.3 C149.6,182.5 148.5,179.3 148.7,176.9 C149.4,168.7 147,164.8 140,160.8 C129.6,154.9 119.3,148.7 109.6,141.9 C103.1,137.3 97.9,131.1 95,123.3 C91.9,114.7 94.4,107.6 100.5,101.4 C106.6,95.2 113.7,91.9 122.6,95 C130.6,97.8 137,103 141.7,109.7 C148.7,119.8 154.9,130.4 161.1,141 C164.5,146.9 169.2,150.1 175.7,148.8 C179.9,148 182.7,149.3 185.3,152.2 C189.6,157 194.1,161.6 198.6,166.3 C216.7,151.9 235.3,140.7 255.6,132.3 C276,123.8 297.2,118.7 319.4,116.1 C319.4,108.9 319.1,102 319.6,95.3 C319.8,92.9 321.2,89.9 323.1,88.3 C329.5,82.7 331,78.2 328,70.2 C323,57 319.8,43.4 319.7,29.3 C319.6,12.6 324.2,6.1 339.2,0.4 L347.2,0.4 C359.9,3.7 364.9,12.8 365.8,25 C366,27.3 366,29.7 365.9,32 C365.4,45.4 362.2,58.3 357.5,70.8 C354.8,78 355.9,83.1 362.1,87.5 C365.4,89.9 366.4,92.6 366.3,96.4 C366.1,103 366.2,109.6 366.2,116.2 C411.6,121.3 451.4,137.9 486.2,165.7 C486.9,165.4 487.1,165.4 487.2,165.3 C491.9,160.6 496.5,155.7 501.5,151.4 C503.4,149.8 506.5,148.8 509,149 C517,149.7 521.4,147.4 525.1,140.2 C529,132.7 532.6,124.8 537.7,118.2 C543.5,110.7 550.3,103.5 557.9,97.8 C566.9,91.1 576.5,92.9 584.6,100.7 C592.9,108.7 594.4,118 588.7,127.8 C587.1,130.5 585.2,133.1 583.1,135.4 C572.7,146.8 559.7,154.5 545.9,161 C538.8,164.3 536.3,168.2 537.3,176 C537.8,180.1 536.6,183 533.7,185.7 C529,190 524.4,194.6 520,199 C552.4,244.7 558.3,258.7 569.4,316.6 C569.9,319.3 571.2,319.7 573.5,319.7 C579.3,319.6 585.2,319.4 591,319.8 C593.3,320 596.1,321.3 597.6,323.1 C603.6,330.1 607.4,330.6 616.5,328.2 C628.8,324.9 641.3,321.8 653.9,320.3 C670.7,318.4 678.9,323.6 685.4,337.6 L685.4,348.6 C681.2,362.6 670.2,366.1 657.5,366.3 C643.2,366.5 629.5,363 616.1,358.2 C607.6,355.1 603.5,356.4 597.7,363.2 C596.2,364.9 593.4,366.3 591.1,366.5 C585.5,367 579.8,366.8 574.1,366.6 C570.6,366.4 569.6,367.8 569.3,371.1 C566.4,396.6 559.5,421.1 547.5,443.8 C539.6,458.8 530.2,472.9 520.8,488.5 C524.6,492.1 529.4,496.8 534.3,501.2 C536.9,503.5 537.8,506.1 537.4,509.6 C536.4,518.4 538.8,521.4 546.6,525.8 C556.6,531.4 566.4,537.3 575.8,543.9 C582.6,548.7 588.2,555.1 591,563.3 C594,571.8 591.3,579 585.2,585.1 C579.2,591.1 572.2,594.3 563.5,591.3 C555.5,588.6 549,583.3 544.3,576.6 C537.4,566.8 531.2,556.6 525.4,546.2 C521.4,539.1 517.5,536.7 509.4,537.2 C506.8,537.4 503.5,536.3 501.5,534.5 C496.4,530.1 491.9,524.9 487.5,520.5 C486.5,520.7 486.3,520.7 486.2,520.8 C451.8,547.9 413,564.5 369.4,569.7 C368.3,569.8 366.7,571.9 366.6,573.2 C366.3,579.2 366.8,585.2 366.3,591.2 C366.1,593.5 364.8,596.3 363,597.8 C356.2,603.7 354.9,607.8 358,616.2 C363,629.9 366.4,643.9 366.1,658.6 C365.4,671.1 361.2,681.7 347,685.2 L347,685.2 Z M511,355.8 C509.3,355.6 508.3,355.5 507.3,355.5 C502.5,355.6 497.8,356.1 494.2,351.5 C493.2,350.3 489.7,350 487.8,350.8 C471.8,356.9 456,356.9 440,350.7 C438.2,350 434.6,350.4 433.6,351.6 C430.3,356 425.9,355.4 421.5,355.6 C420.1,355.7 418.2,357 417.7,358.2 C413.9,367.9 410.3,377.6 406.4,388.2 C406.1,387.9 406.7,388.7 407.4,389.3 C410.7,392.4 413.9,395.3 413.1,400.7 C412.9,402.3 415.1,405.2 416.8,406 C432.7,413 443.9,424.3 451.1,440.1 C452,442.1 455.5,444.1 457.8,444.1 C461.5,444.1 463.8,445.4 465.9,447.9 C467.3,449.6 468.5,451.4 470.1,453.6 C494.5,424.5 507.9,392.6 511,355.8 L511,355.8 Z M511,330 C507.8,292.9 494.5,261 470.9,233 C469.5,234.3 468.4,235.3 467.3,236.3 C464.4,239.1 462,242.5 456.8,241.6 C455.1,241.3 451.8,243.9 450.9,245.9 C443.9,261.3 432.9,272.4 417.4,279.4 C415.3,280.3 413,283.7 413.1,285.8 C413.2,289.9 411.6,292.4 408.9,294.8 C407.6,296 406.5,297.3 405.2,298.6 C405.7,298.6 406.2,298.5 406.7,298.5 C410.2,307.9 414,317.3 417.2,326.8 C418.1,329.5 419.4,330.1 421.9,330 C426.2,329.8 430.3,329.7 433.6,333.8 C434.7,335.2 438.7,335.3 440.9,334.5 C456.4,328.8 471.8,328.8 487.3,334.5 C489.6,335.3 493.6,334.6 495.3,333 C497.9,330.5 500.5,329.8 503.7,330 C505.9,330.1 508,330 511,330 L511,330 Z M297.2,406.5 C297.4,406.3 296.6,406.9 296,407.6 C292.9,410.9 290,414 284.6,413.4 C282.9,413.2 280,415.7 279.1,417.6 C272.2,433.1 261,444.1 245.7,451.1 C243.6,452.1 241.1,455.5 241.3,457.5 C241.7,461.7 239.8,464.1 237.1,466.4 C235.6,467.7 233.9,468.8 231.9,470.2 C260.9,494.6 292.9,508 329.5,511 C329.7,509.4 329.8,508.6 329.8,507.8 C329.8,502.9 329.2,498 333.9,494.2 C335.1,493.2 335.3,489.6 334.6,487.8 C328.5,472 328.6,456.3 334.5,440.4 C335.2,438.4 334.9,434.6 333.6,433.6 C329.4,430.4 329.6,426.2 329.8,421.9 C329.9,419.4 329.3,418.1 326.6,417.2 C317.1,414.1 307.7,410.5 297.2,406.5 L297.2,406.5 Z M174.2,355.5 C177.4,392.7 190.7,424.6 214.3,452.6 C215.6,451.4 216.7,450.5 217.6,449.6 C220.6,446.4 223.3,443.5 228.5,444 C230.2,444.2 233.2,441.9 234.1,440 C241.2,424.4 252.3,413.2 267.9,406.2 C269.9,405.3 271.9,401.9 272,399.6 C272.1,396 273.1,393.5 275.8,391.5 C277.4,390.3 279.1,389.2 279.5,388.9 C275.4,378.8 271.4,370.4 268.6,361.6 C267.2,357.2 266.1,354.8 261.1,355.6 C257.7,356.2 254.9,355.2 252.2,352.4 C250.8,350.9 247,350.1 245.1,350.8 C229.1,357 213.3,356.9 197.3,350.9 C195.3,350.1 191.5,350.8 190.2,352.3 C187.4,355.3 184.5,355.9 180.9,355.6 C178.9,355.4 177,355.5 174.2,355.5 L174.2,355.5 Z M174.2,329.7 C176.1,329.9 177.2,330.1 178.3,330.1 C182.9,330 187.4,329.7 190.9,334.1 C191.9,335.4 195.8,335.5 197.8,334.8 C213.5,328.8 229,328.9 244.7,334.8 C246.7,335.6 250.5,335.4 251.5,334.1 C254.9,329.9 259.1,330.2 263.6,330.1 C265,330.1 267.1,328.8 267.6,327.6 C271.4,317.9 274.9,308.1 278.5,298.4 C279.3,298.1 278.9,297.4 278.3,296.9 C274.9,293.5 271.1,290.7 271.9,284.8 C272.1,283.2 269.5,280.4 267.5,279.5 C252.2,272.6 241.3,261.6 234.3,246.4 C233.3,244.2 229.8,241.8 227.5,241.9 C223.7,242 221.4,240.6 219.5,238.1 C218.1,236.3 217,234.2 215.6,231.8 C190.7,261.1 177.4,292.9 174.2,329.7 L174.2,329.7 Z M232.8,214.5 C234,215.8 234.8,216.8 235.8,217.7 C238.8,220.7 242.2,223.2 241.4,228.6 C241.1,230.4 244,233.7 246.2,234.7 C261.3,241.6 272.1,252.5 279,267.5 C280,269.6 283.2,272.2 285.2,272.1 C289.8,271.8 292.3,274 295,276.8 C296.1,278 297.3,279 298.5,280.1 C298.5,279.6 298.4,279.1 298.4,278.7 C307.5,275.2 316.5,271.4 325.8,268.4 C329,267.3 330.1,266.2 329.9,263 C329.7,259 329.6,255.3 333.4,252.2 C334.9,251 335.2,246.8 334.4,244.5 C328.8,228.9 328.7,213.6 334.5,198.1 C335.3,195.9 334.8,191.8 333.3,190.4 C330.1,187.5 329.7,184.3 329.9,180.6 C330,178.7 329.9,176.8 329.9,174.4 C292.7,177.6 260.8,191 232.8,214.5 L232.8,214.5 Z M387.8,404.9 C387.5,405.6 387.2,406.3 386.9,407 C377.5,410.5 368.1,414.2 358.5,417.4 C355.7,418.4 355.5,419.9 355.6,422.2 C355.8,426.4 355.7,430.2 351.9,433.4 C350.4,434.7 350.1,438.8 350.9,441.1 C356.6,456.6 356.5,472 350.9,487.5 C350.1,489.8 350.8,493.9 352.4,495.5 C355.1,498.2 355.9,500.9 355.7,504.4 C355.6,506.5 355.7,508.6 355.7,511.2 C392.7,507.9 424.6,494.6 452.5,471.1 C451.5,470 450.9,469.2 450.2,468.6 C446.7,465.3 443.2,462.3 443.8,456.5 C444,454.9 441.4,452 439.5,451.1 C424,444.1 413,433 406,417.6 C405,415.5 401.5,414.4 399,413.2 C396.7,412 393.9,411.5 391.8,410 C390.1,408.8 389.1,406.6 387.8,404.9 L387.8,404.9 Z M453.5,215.4 C424.3,190.9 392.5,177.6 356,174.4 C355.8,176 355.6,177.1 355.6,178.3 C355.6,182.9 356.1,187.4 351.5,190.9 C350.2,191.9 349.9,195.7 350.6,197.7 C356.5,213.5 356.5,229.2 350.6,245 C349.9,247 350.2,250.8 351.5,251.8 C356,255.1 355.4,259.4 355.6,263.9 C355.7,265.2 356.6,267.3 357.7,267.7 C367.5,271.5 377.4,275.1 388,278.9 C387.7,279.2 388.3,278.7 388.9,278.1 C392.1,274.8 395,271.3 400.6,272 C402.2,272.2 405.1,269.7 406,267.8 C412.9,252.6 423.8,241.5 439.1,234.6 C441.3,233.6 443.8,230.2 443.8,227.9 C443.8,223.9 445.2,221.2 448.1,219 C449.7,217.8 451.4,216.8 453.5,215.4 L453.5,215.4 Z M302.6,342.5 C302.5,364.6 320.2,382.6 342.4,382.7 C364.4,382.8 382.5,365 382.8,342.9 C383.1,321.1 364.8,302.8 342.8,302.7 C320.6,302.7 302.8,320.3 302.6,342.5 L302.6,342.5 Z M148.8,418.3 C148.8,424.5 154,429.7 160.2,429.7 C166.3,429.7 171.6,424.4 171.7,418.3 C171.7,412.2 166.4,406.9 160.3,406.9 C154,406.9 148.8,412.1 148.8,418.3 L148.8,418.3 Z M429.4,160.6 C429.5,154.3 424.5,149.1 418.3,149 C412.1,148.9 406.9,154 406.8,160.2 C406.7,166.5 411.8,171.8 418,171.9 C424.1,172 429.4,166.8 429.4,160.6 L429.4,160.6 Z M278.4,160.6 C278.5,154.3 273.5,149.1 267.2,149 C261,148.9 255.8,154 255.7,160.2 C255.6,166.5 260.7,171.8 266.8,171.9 C272.9,172 278.3,166.8 278.4,160.6 L278.4,160.6 Z M536.3,418.3 C536.3,411.9 531.2,406.8 524.9,406.9 C518.6,407 513.6,412.2 513.7,418.5 C513.8,424.6 518.8,429.6 524.9,429.7 C531.2,429.8 536.3,424.7 536.3,418.3 L536.3,418.3 Z M160.2,278.6 C166.4,278.6 171.6,273.3 171.6,267.2 C171.6,261 166.3,255.9 160.1,255.9 C153.9,255.9 148.8,261.1 148.8,267.3 C148.8,273.6 154,278.6 160.2,278.6 L160.2,278.6 Z M418.1,536.5 C424.5,536.5 429.5,531.5 429.4,525.1 C429.4,518.9 424.6,513.9 418.4,513.8 C412.1,513.6 406.9,518.7 406.8,525 C406.7,531.3 411.8,536.5 418.1,536.5 L418.1,536.5 Z M278.4,525 C278.3,518.7 273,513.6 266.8,513.8 C260.5,514 255.6,519.2 255.8,525.6 C256,531.7 261,536.6 267.1,536.6 C273.4,536.5 278.5,531.3 278.4,525 L278.4,525 Z M536.3,267.4 C536.4,261 531.4,255.9 525.1,255.9 C518.8,255.9 513.7,261 513.7,267.4 C513.7,273.6 518.6,278.5 524.7,278.7 C531.1,278.7 536.2,273.8 536.3,267.4 L536.3,267.4 Z" id="Shape" fill="#000000"></path>
                <path d="M302.6,342.5 C302.7,320.3 320.6,302.7 342.8,302.7 C364.8,302.8 383,321.1 382.8,342.9 C382.5,365 364.4,382.8 342.4,382.7 C320.3,382.7 302.5,364.7 302.6,342.5 L302.6,342.5 Z" id="Shape" fill="#FFFFFF"></path>
            </g>
        </g>
    </g>
</svg>