<svg viewBox="0 0 128 128" xmlns="http://www.w3.org/2000/svg" xmlns:xlink="http://www.w3.org/1999/xlink"><linearGradient id="a"><stop offset="0" stop-color="#666"/><stop offset="1" stop-color="#333"/></linearGradient><linearGradient id="b"><stop offset="0" stop-color="#0369a3"/><stop offset="1" stop-color="#1c99e0"/></linearGradient><linearGradient id="c" gradientTransform="matrix(0 .791084 -1.28 0 1499.6005 -282.0136)" gradientUnits="userSpaceOnUse" x1="445.69522" x2="441.38797" y1="1103.5776" y2="1099.8198"><stop offset="0" stop-color="#e9b913"/><stop offset="1" stop-color="#ff0"/></linearGradient><linearGradient id="d" gradientTransform="matrix(4.19983 0 0 3.9111 -1392.9394 -4517.0536)" gradientUnits="userSpaceOnUse" x2="0" y1="1173" y2="1178"><stop offset="0" stop-color="#0369a3"/><stop offset="1" stop-color="#023f62"/></linearGradient><linearGradient id="e" gradientTransform="matrix(1.19997 0 0 1.22222 -281.19161 858.5534)" gradientUnits="userSpaceOnUse" x2="0" y1="-629.66907" y2="-635.54944"><stop offset="0" stop-color="#18a303"/><stop offset="1" stop-color="#106802"/></linearGradient><linearGradient id="f" gradientTransform="matrix(4.19983 0 0 3.9111 -1392.9394 -4521.9436)" gradientUnits="userSpaceOnUse" x2="0" xlink:href="#a" y1="1173" y2="1178"/><linearGradient id="g" gradientTransform="matrix(-4.19983 0 0 3.9111 1540.9405 -4523.1636)" gradientUnits="userSpaceOnUse" x2="0" xlink:href="#a" y1="1173" y2="1178"/><linearGradient id="h" gradientTransform="matrix(4.4999 0 0 3.66665 -942.97741 2199.6564)" gradientUnits="userSpaceOnUse" x2="0" y1="-581.63782" y2="-578.63782"><stop offset="0" stop-color="#63bbee"/><stop offset="1" stop-color="#aadcf7"/></linearGradient><linearGradient id="i" gradientUnits="userSpaceOnUse" x1="108.00134" x2="20.00134" xlink:href="#b" y1="130" y2="14"/><linearGradient id="j" gradientUnits="userSpaceOnUse" x1="108.00134" x2="20.00134" y1="122" y2="6"><stop offset="0" stop-color="#e6e6e6"/><stop offset="1" stop-color="#fff"/></linearGradient><linearGradient id="k" gradientTransform="matrix(7.99974 0 0 7.9977797 -873.96742 -7808.7674)" gradientUnits="userSpaceOnUse" x1="122.75008" x2="111.74973" xlink:href="#b" y1="991.62115" y2="977.11713"/><path d="m17.253295 0c-.25037 0-.50072.011156-.75.035156-3.66708.6998-4.56576 2.2662469-4.5 5.9980468v115.9687472c.0004 4.1875 1.81149 5.99765 6 5.99805h91.998055c4.1885-.0004 5.99764-1.81055 5.99804-5.99805v-71.818356c.048-2.1119-.78004-4.230247-2.25-5.748047l-42.160145-42.1503908c-1.51819-1.4691999-3.63759-2.2988999-5.75-2.25h-47.83595c-.24919-.024-.49962-.0351562-.75-.0351562zm70.00978.013672c-.20997 0-.41948.016828-.62695.048828-2.66247.8528-3.55843 4.904547-1.50586 6.810547l24.095695 24.220703c2.22593 2.1217 6.6581.306209 6.77538-2.775391v-24.220703c-.00024-2.1136998-1.91298-4.034856-4.01561-4.035156h-24.093755c-.20758-.032-.41894-.048828-.6289-.048828z" fill="url(#k)"/><path d="m18.001355 6v116h92.000015v-72l-43.999995-44z" fill="url(#j)"/><path d="m31.001355 55.996094v4h18v-4zm21.99805.002v28h42v-28zm3.00195 3.001906h36v22h-36zm-25 4.996094v4h18v-4zm0 8v4h18v-4zm0 8v4h18v-4zm0 8v4h64v-4zm0 8v4h64v-4zm0 7.999996v4h42v-4z" fill="url(#i)"/><path d="m56.001305 58.9987h35.99924v21.9999h-35.99924z" fill="url(#h)"/><path d="m82.400745 65.1097c2.39995 1.2223 6.5708 5.4785 9.59846 8.5556v3.6666h-27.59877c4.80059-6.111 12.00044-9.7777 18.00031-12.2222z" fill="url(#g)"/><path d="m73.588425 72.2139.20971-1.7259 3.15139-1.3732 1.77234-1.6867 3.11639-1.287-.81326 2.0851-1.21491 2.1676-.72316 2.3557-.50012 1.3573z" fill="#333"/><path d="m74.600905 70.6097c-3.59197-3.0353-5.39988-5.5-7.79983-9.1666-.70179.2159-.67498.1338-1.19998 0 0 0-3.21063 4.8582-4.7999 7.3333-1.58925 2.4752-4.80059 6.1111-4.80059 6.1111v2.4444h27.59878s-6.59344-4.8509-8.99848-6.7221z" fill="url(#f)"/><path d="m92.000545 74.8875h-1.54688l-6.85294 1.2222s-6.77196-1.8333-7.79068-1.8333c-1.00092 0-4.20908.6111-4.80941.6111-.42074 0-2.99959-1.2222-3.60943-1.2222-1.00619 0-2.16569 1.2986-5.16562 1.8333 0 0-.8619-1.9478-1.42439-1.8333-3.59992 1.4132-4.80059 1.2222-4.80059 1.2222v6.1111h35.9986l.001-6.1111h.00014z" fill="url(#e)"/><path d="m56.001305 76.1097-.0007 4.8889h31.20004l1.19998-1.2223-1.19998-1.2221-2.39995-1.2223-5.99988-1.2221-5.99987-.6112-5.39988.6112h-7.19985-4.19991z" fill="url(#d)"/><path d="m58.401255 73.6653 1.70967-2.7954 2.02641-2.4427 1.54734-2.8707 1.91642-2.8912-1.30074 3.6512-.95243 3.0079-.46065 1.8973-.85958 2.0216c-.34603-.2571-.78349-.2666-1.17801-.397l-1.12659.4498z" fill="#333"/><path d="m75.200895 73.6653-1.74718-2.6968-3.09839-3.4415-2.56346-3.4328-.99079-1.4289 1.07384 3.7096 1.17772 2.2247 1.04471 3.3983.30366 1.6674 1.07862.3681 1.64879-.389c.69217-.07 1.38438.013 2.07248.021z" fill="#808080"/><path d="m62.803405 73.7194 1.29015-3.3187.62925-3.4258.91011-2.115.56817-2.1946.7887 2.2581.22406 2.1565.95403 1.9211.94577 2.2071.1768 1.5591-1.58862.4542-1.50905-.5992-1.66818 1.1023h-1.72119v-.01z" fill="#666"/><path d="m78.269745 74.2786-2.10187-1.5431-1.34246-1.0907 1.30382 2.0694z" fill="#808080"/><path d="m80.030725 72.807.74175-2.4329.91009-2.115.56818-2.1944.7887 2.2581 1.01154 1.9273.72905 1.9211-.10416 2.0544 1.00178 1.0243-2.0623-.1136-4.16225-.8773.57766-1.4523z" fill="#666"/><path d="m91.513055 74.1618-1.40969-.8635-1.97342-2.7541-2.90095-2.5543-2.26576-1.9252.43635 1.6088 2.0027 3.2177.21973 2.9019 1.20364.9416 2.69994-.5347 1.98746-.038z" fill="#808080"/><path d="m57.201275 77.3319-1.19997 3.6667h29.99936v-1.2223l-1.19997-1.2221-5.99988-1.2223-5.99987-.611-5.99987.611-6.4938.1823z" fill="#0369a3"/><path d="m69.201025 79.7763 1.19998-1.2221h4.79989l3.59992 1.2221 1.19998 1.2223h-2.39995z" fill="#1c99e0" opacity=".5"/><path d="m92.000605 65.00274c-3.31371 0-6-2.686297-6-6.00001h6z" fill="url(#c)" opacity=".74"/></svg>
