<?xml version="1.0" encoding="UTF-8"?>
<svg width="600px" height="600px" viewBox="0 0 600 600" version="1.1" xmlns="http://www.w3.org/2000/svg" xmlns:xlink="http://www.w3.org/1999/xlink">
    <!-- Generator: Sketch 52.5 (67469) - http://www.bohemiancoding.com/sketch -->
    <title>Shape</title>
    <desc>Created with Sketch.</desc>
    <g id="Page-1" stroke="none" stroke-width="1" fill="none" fill-rule="evenodd">
        <g id="helm" fill="#19191F" fill-rule="nonzero">
            <path d="M588.342857,288.321427 L543.942857,288.321427 C541.05,229.778571 517.607143,176.657143 480.557142,135.942857 L512.142857,104.335714 C516.707142,99.7928572 516.707142,92.4 512.142857,87.8357142 C507.578573,83.2928572 500.207142,83.2928572 495.642858,87.8357142 L464.035715,119.442857 C423.342857,82.3928573 370.221428,58.9714285 311.657143,56.1 L311.657143,11.6571429 C311.657143,5.20714285 306.428573,0 300,0 C293.571428,0 288.342857,5.20714285 288.342857,11.6571429 L288.342857,56.0785715 C229.671429,58.7571427 176.421429,82.0714285 135.578571,119.035714 L104.357143,87.8571427 C99.7928572,83.2928572 92.4214285,83.2928572 87.8571427,87.8571427 C83.2928572,92.4214285 83.2928572,99.7928572 87.8571427,104.357143 L119.035714,135.535714 C81.75,176.292857 58.1785715,229.585714 55.2428573,288.342857 L11.6357143,288.342857 C5.20714285,288.321427 0,293.55 0,300 C0,306.428573 5.20714285,311.635715 11.6571429,311.635715 L55.2214285,311.635715 C57.9,370.178572 81.1285715,423.342857 117.985714,464.185715 L87.8785715,494.271428 C83.3142857,498.835715 83.3142857,506.207142 87.8785715,510.771428 C90.15,513.064285 93.1285715,514.2 96.1285715,514.2 C99.1285715,514.2 102.107143,513.064285 104.378572,510.771428 L134.421429,480.771428 C175.414286,518.357143 229.135714,542.078572 288.364285,544.8 L288.364285,588.321428 C288.342857,594.771427 293.571428,600 300,600 C306.428573,600 311.657143,594.771427 311.657143,588.321428 L311.657143,544.757142 C370.457143,541.864285 423.728572,518.271427 464.528572,480.964285 L495.642858,512.1 C497.914285,514.35 500.892857,515.528572 503.892857,515.528572 C506.892857,515.528572 509.85,514.35 512.142857,512.1 C516.707142,507.535715 516.707142,500.164285 512.142857,495.6 L480.985715,464.464285 C517.992858,423.578573 541.285715,370.328573 543.985715,311.614285 L588.342857,311.614285 C594.771427,311.635715 600,306.428573 600,300 C600,293.55 594.771427,288.321427 588.342857,288.321427 Z M311.657142,118.564286 C353.078572,121.221428 390.685715,137.7 420,163.521428 L354.214285,229.285714 C342.107142,219.964286 327.557142,213.728571 311.678572,211.628571 L311.678572,118.564286 L311.657142,118.564286 Z M288.342857,118.564286 L288.342857,211.628571 C272.485715,213.75 257.914285,219.985714 245.807143,229.285714 L180.021429,163.521428 C209.335714,137.7 246.942857,121.221428 288.342857,118.564286 Z M163.521428,180 L229.285714,245.785714 C219.964286,257.871427 213.707143,272.442858 211.628572,288.3 L118.585714,288.3 C121.221428,246.921428 137.7,209.335714 163.521428,180 Z M118.585714,311.635715 L211.628571,311.635715 C213.685714,327.214285 219.728571,341.485715 228.728571,353.442858 L162.878571,419.271428 C137.421428,390.064285 121.221428,352.735715 118.585714,311.635715 Z M288.342858,481.392858 C246.621429,478.757143 208.735714,462.021428 179.314286,435.857143 L245.014286,370.114285 C257.292858,379.778572 272.142857,386.228572 288.321428,388.371427 L288.321428,481.392858 L288.342858,481.392858 Z M300.021427,349.435715 C272.764285,349.435715 250.564285,327.257143 250.564285,300 C250.564285,272.742858 272.742857,250.521428 300.021427,250.521428 C327.257142,250.521428 349.435715,272.721428 349.435715,300 C349.435715,327.235715 327.257142,349.435715 300.021427,349.435715 Z M311.657142,481.392858 L311.657142,388.35 C327.535715,386.25 342.085715,379.971428 354.214285,370.692858 L420,436.478573 C390.664285,462.3 353.078572,478.757143 311.657142,481.392858 Z M436.5,420 L370.714285,354.214285 C380.035715,342.085715 386.292857,327.557142 388.371427,311.657142 L481.414285,311.657142 C478.778572,353.035715 462.3,390.642857 436.5,420 Z M388.371428,288.321427 C386.271428,272.464285 380.014285,257.892857 370.692858,245.807143 L436.478573,180.021429 C462.3,209.335714 478.778573,246.942857 481.414285,288.342857 L388.371428,288.342857 L388.371428,288.321427 Z M300.021427,273.878573 C285.621427,273.878573 273.9,285.6 273.9,300 C273.9,314.4 285.621427,326.121427 300.021427,326.121427 C314.4,326.121427 326.121427,314.4 326.121427,300 C326.121427,285.6 314.4,273.878573 300.021427,273.878573 Z" id="Shape"></path>
        </g>
    </g>
</svg>